<svg width="175" height="51" viewBox="0 0 175 51" fill="none" xmlns="http://www.w3.org/2000/svg">
<path d="M23.1 0.73999H156.18V5.26001H23.1V0.73999Z" fill="#000600"/>
<path d="M23.1 45.96H156.18V50.48H23.1V45.96Z" fill="#000600"/>
<path d="M156.18 5.26001H160.71V9.78H156.18V5.26001Z" fill="#000600"/>
<path d="M160.71 5.26001H165.23V9.78H160.71V5.26001Z" fill="#000600"/>
<path d="M156.18 41.43H160.71V45.96H156.18V41.43Z" fill="#000600"/>
<path d="M160.71 41.43H165.23V45.96H160.71V41.43Z" fill="#000600"/>
<path d="M165.23 9.78H169.75V14.3H165.23V9.78Z" fill="#000600"/>
<path d="M165.23 14.3H169.75V18.83H165.23V14.3Z" fill="#000600"/>
<path d="M165.23 32.39H169.75V36.91H165.23V32.39Z" fill="#000600"/>
<path d="M165.23 36.91H169.75V41.43H165.23V36.91Z" fill="#000600"/>
<path d="M169.75 18.83H174.27V23.35H169.75V18.83Z" fill="#000600"/>
<path d="M169.75 23.35H174.27V27.87H169.75V23.35Z" fill="#000600"/>
<path d="M169.75 27.87H174.27V32.39H169.75V27.87Z" fill="#000600"/>
<path d="M23.1 50.48H18.58V45.96H23.1V50.48Z" fill="#000600"/>
<path d="M23.1 5.26001H18.58V0.73999H23.1V5.26001Z" fill="#000600"/>
<path d="M18.58 45.96H14.06V41.43H18.58V45.96Z" fill="#000600"/>
<path d="M14.06 45.96H9.53V41.43H14.06V45.96Z" fill="#000600"/>
<path d="M18.58 9.78H14.06V5.26001H18.58V9.78Z" fill="#000600"/>
<path d="M14.06 9.78H9.53V5.26001H14.06V9.78Z" fill="#000600"/>
<path d="M9.52998 41.43H5.00998V36.91H9.52998V41.43Z" fill="#000600"/>
<path d="M9.52998 36.91H5.00998V32.39H9.52998V36.91Z" fill="#000600"/>
<path d="M9.52998 18.83H5.00998V14.3H9.52998V18.83Z" fill="#000600"/>
<path d="M9.52998 14.3H5.00998V9.78H9.52998V14.3Z" fill="#000600"/>
<path d="M5.00999 32.39H0.48999V27.87H5.00999V32.39Z" fill="#000600"/>
<path d="M5.00999 27.87H0.48999V23.35H5.00999V27.87Z" fill="#000600"/>
<path d="M5.00999 23.35H0.48999V18.83H5.00999V23.35Z" fill="#000600"/>
</svg>
